Patient4_TMGait_0pt4_01_left_04_EMG.mot
version=1
nRows=23
nColumns=33
inDegrees=no
endheader
time	1LAddLong	2LGlutMax	3LGlutMed	4LIliopsoas	5LSemiMemb	6LBicFemLong	7LRecFem	8LVastMed	9LVastLat	10LGasMed	11LTibAnt	12lTibPost	13LPeroneusLong	14LSol	15LExtDigLong	16LFlexDigLong	17RAddLong	18RGlutMax	19RGlutMed	20RIliopsoas	21RSemiMemb	22RBicFemLong	23RRecFem	24RVastMed	25RVastLat	26RGasMed	27RTibAnt	28RTibPost	29RPeroneusLong	30RSol	31RExtDigLong	32RFlexDigLong
5.005	-0.008545	0.10147	0.011749	0.006409	0.055847	-0.12054	0.18539	0.012054	0.013733	0.18158	-0.001068	-0.031586	0.055389	-0.40146	0.036774	0.062561	-0.016022	0.11688	0.52078	-0.060577	0.068359	-0.16541	0.18112	0.088806	0.17807	0.003204	-0.011292	-0.00061	0.21957	-0.014496	-0.004883	-0.00412
5.006	0.006561	0.092163	-0.014954	0.003204	0.018921	-0.15854	0.18173	0.002899	0.015869	-0.551	-0.008698	-0.00946	0.075531	0.31509	0.047455	0.11627	-0.00412	0.089417	0.59815	-0.11765	0.046997	-0.14648	0.18509	-0.008545	0.24277	-0.004578	-0.057831	-0.002136	0.041962	-0.005493	-0.013428	-0.00824
5.007	0.006256	0.098267	0.007324	0.006104	-0.033112	-0.066071	0.19012	0.005341	0.012665	-0.75485	0.002441	0.019836	0.04715	0.62042	0.007935	0.029297	0.008087	0.001984	0.45273	-0.14832	0.060425	-0.13199	0.023041	-0.040588	0.18036	-0.001831	0.030518	-0.005798	-0.95703	-0.017395	-0.004578	-0.006409
5.008	0.010529	0.071869	0.033569	0.012817	-0.077515	0.057068	0.1857	0.004883	0.009155	-0.43182	0.003967	0.016937	0.056305	0.38849	-0.019226	-0.018005	0.001373	-0.052795	0.24826	-0.090942	0.047302	-0.14435	0.068512	-0.094452	0.072021	-0.000916	0.039215	-0.004425	-0.28549	0.004272	-0.001068	-0.013123
5.009	0.007477	0.082092	0.012512	-0.005951	-0.047455	0.10864	0.21606	0.007629	0.001984	-0.23224	-0.001984	0.000458	0.027924	-0.033264	-0.033264	-0.0914	0.013123	0.002441	0.14084	-0.10056	0.035095	-0.14786	0.11917	0.010681	0.091858	-0.01709	0.0383	-0.003967	0.16525	0.044861	-0.005341	-0.013275
5.01	-0.012665	0.099487	-0.02655	0.008392	0.052185	0.10284	0.20844	0.010986	-0.007629	-0.002441	0.001984	-0.019684	0.002289	-0.11475	-0.028534	0.071259	0.027924	0.084229	-0.16998	-0.027618	0.031433	-0.16464	0.073242	-0.26535	-0.011902	-0.006866	0.072632	-0.009308	-0.35324	-0.015564	-0.007935	-0.015564
5.011	0.002136	0.11719	-0.046997	-0.003967	0.062561	0.073547	0.20462	0.006866	-0.011444	0.15442	0.009918	-0.002289	-0.032349	-0.077515	-0.014648	0.070343	0.058136	0.07309	-0.068665	-0.006866	0.009308	-0.16846	-0.026245	-0.28076	0.002136	-0.010376	0.11261	-0.003052	-0.69626	0.007629	-0.009308	-0.013123
5.012	0.00351	0.079346	0.06897	0.000458	0.057373	0.062408	0.20706	0.009918	-0.029907	0.27863	0.015411	-0.003815	-0.041656	0.097351	-0.007172	0.03418	0.06073	0.083618	0.34454	-0.11246	0.004272	-0.1413	0.012054	-0.11459	-0.039215	-0.009003	0.045624	-0.005035	-0.21271	0.008087	-0.010376	0.001526
5.013	-0.011139	0.081329	0.020905	-0.001373	-0.000763	0.036163	0.20447	0.008087	-0.030365	0.27512	0.005951	0.005035	0.000763	0.19562	0.013733	-0.003357	0.059967	0.10849	0.27634	-0.076904	-0.024872	-0.1001	-0.024109	-0.072021	0.005798	-0.00946	-0.036926	-0.005646	0.03479	0.002136	-0.004883	-0.00351
5.014	-0.011444	0.090637	0.032196	0.001678	-0.051727	-0.014038	0.22492	0.010223	-0.016632	0.19623	0.002136	0.003815	0.035706	0.13382	0.027466	-0.29877	0.027466	0.12314	0.040131	-0.072632	-0.093384	-0.035553	-0.11765	0.13641	0.15747	-0.008545	0.019989	-0.003815	0.007324	-0.030212	-0.001373	-0.002899
5.015	0.007935	0.078583	0.030365	0.001984	-0.021362	-0.11673	0.18112	0.007324	0.024109	-0.2977	0.002899	0.001526	0.044556	0.084229	0.017853	-0.24674	-0.014496	0.1091	-0.059052	0.13718	-0.066223	-0.001678	-0.13138	0.17532	0.22583	-0.015106	0.059509	-0.002747	0.007629	-0.039825	-0.006561	-0.004425
5.016	0.016479	0.095215	0.010834	0.013275	0.029144	-0.27252	0.21164	0	0.027466	-0.37659	-0.007019	-0.018921	0.06012	0.016022	0.019226	0.11963	-0.00946	0.10452	-0.10223	0.25543	0.039368	-0.10727	0.18143	0.18631	0.0914	-0.01236	0.063934	-0.002594	0.26382	-0.041199	-0.001831	-0.002441
5.017	0.008392	0.096588	0.006866	0.006561	-0.028229	-0.097961	0.2449	0.000305	-0.01709	-0.089111	0.002899	-0.02182	0.039215	-0.20828	-0.02655	-0.009308	0.023193	0.074921	0.00061	0.2504	0.23056	-0.1738	0.2095	0.19531	0.082092	0.001678	-0.014343	-0.002747	1.2387	0.020447	-0.00351	-0.008698
5.018	0.003357	0.098572	0.006714	0.001221	-0.05249	-0.029144	0.20523	0.00885	-0.036621	-0.08728	0.002747	-0.005493	0.040741	-0.21149	0.001221	0.093231	0.023651	0.11841	0.077057	0.096283	0.34943	-0.16449	0.10727	0.12604	0.21011	-0.001678	-0.077515	-0.006714	0.4538	-0.079346	-0.005035	-0.007629
5.019	-0.005493	0.08255	0.042267	-0.000916	-0.021057	-0.055847	0.18707	0.006714	-0.026398	-0.19241	-0.011597	-0.006866	0.026855	-0.11185	0.00946	0.177	0.039063	0.079193	0.044708	-0.054932	0.048065	-0.1149	0.18906	0.081329	0.25665	0	0.027618	-0.003662	-0.73776	-0.082397	-0.006714	-0.00885
5.02	0.005188	0.063324	0.010376	-0.011902	0.02243	0.032501	0.12634	-0.002594	-0.003052	-0.10452	0.027924	-0.009308	0.016022	-0.18875	0.01709	-0.008698	0.019684	0.099335	0.25589	0.099792	-0.1152	-0.12741	0.13336	0.019531	0.17914	-0.000458	0.073395	-0.004425	-0.75943	-0.060425	0.000153	-0.014038
5.021	0.005646	0.0737	0.020447	-0.003815	-0.012512	0.1944	0.17609	0.009613	0.019989	-0.11398	-0.01297	0.10361	0.009003	-0.27329	0.006561	-0.049438	0.027618	0.10788	0.029144	0.20996	-0.031128	-0.11765	0.066071	0.033875	0.15305	-0.011597	0.006104	0.007019	-0.014801	0.036469	-0.001831	-0.009003
5.022	-0.007172	0.13245	0.007782	0.014038	-0.067749	0.15869	0.25543	0.009918	-0.019226	0.038605	0.007172	-0.10346	-0.021973	-0.15793	0.008392	-0.13763	0.028992	0.15213	-0.56	0.099792	-0.029755	-0.088348	0.012512	0.080872	0.20447	-0.004578	0.04425	-0.002594	-0.30746	0.045929	-0.001221	-0.020447
5.023	-0.000916	0.066071	0.021362	-0.00946	0.008087	0.12024	0.31632	0.014343	-0.027313	0.050507	-0.001984	-0.075226	-0.068817	0.11017	0.020142	0.23377	0.006104	0.17838	-0.026398	-0.030518	0.12421	-0.075531	-0.050201	0.031128	0.21545	-0.006866	0.03891	-0.001678	0.14175	0.041351	-0.002747	-0.012665
5.024	0.001221	0.04776	0.007172	-0.001984	0.028687	0.11917	0.28641	0.005646	-0.026855	0.075684	0.005341	0.046082	-0.08667	0.060577	0.000153	-0.90836	-0.055695	0.13565	-0.15762	-0.10956	0.15808	-0.04303	-0.044403	-0.033264	0.052795	-0.006714	-0.018768	-0.002747	0.8522	-0.056915	-0.005035	-0.012512
5.025	0.020905	0.063782	0.004578	0.001526	0.010681	0.1831	0.21942	0.009308	0.039978	0.13855	0.006256	0.041504	-0.019989	-0.056915	0.001068	0.43991	-0.046539	0.11276	0.11795	-0.18204	0.17364	-0.039825	0.02243	-0.17227	-0.18356	-0.011597	0.004883	-0.001221	0.33478	-0.024109	-0.007324	-0.012054
5.026	0.006409	0.053711	0.005798	-0.004578	-0.001831	0.22476	0.2948	0.005035	-0.0354	0.049133	0.002899	-0.030975	0.041809	0.084534	-0.019989	0.22583	0.002441	0.095062	0.98785	-0.1622	0.17899	-0.044861	-0.052338	-0.19241	0.16098	-0.004578	0.042419	-0.004425	-0.040588	-0.028534	-0.006714	-0.00412
5.027	0.00351	0.05188	0.013885	-0.010071	-0.004425	0.34088	0.30594	0.00885	-0.010376	0.023499	0.001984	0.058136	0.073395	0.26367	-0.022125	-0.20355	0.031586	0.075226	0.72922	-0.052032	0.22461	-0.072327	-0.06958	-0.31601	0.37231	0.001678	0.082703	-0.001373	0.046539	-0.03952	-0.00061	-0.00946
